<svg width="40" height="40" viewBox="0 0 40 40" fill="none" xmlns="http://www.w3.org/2000/svg">
<rect width="40" height="40" rx="4" fill="#101010"/>
<path d="M15.3695 10.5455C15.4617 10.2356 15.6515 9.96371 15.9107 9.77044C16.1699 9.57717 16.4847 9.47284 16.808 9.47299H23.417C23.6595 9.47299 23.8984 9.53178 24.1132 9.64432C24.328 9.75686 24.5123 9.9198 24.6503 10.1192C24.7883 10.3186 24.8759 10.5484 24.9057 10.7891C24.9354 11.0297 24.9064 11.274 24.821 11.501L23.3315 15.473H26.3765C26.5883 15.473 26.7958 15.5328 26.9752 15.6456C27.1545 15.7583 27.2983 15.9194 27.3902 16.1103C27.482 16.3011 27.5181 16.5141 27.4943 16.7245C27.4704 16.935 27.3877 17.1345 27.2555 17.3L25.358 19.6835L25.013 18.9935C24.9647 18.8977 24.9095 18.8054 24.848 18.7175C24.5595 18.286 24.187 17.9171 23.7528 17.6328C23.3185 17.3485 22.8314 17.1547 22.3205 17.063L22.2935 17.0585C21.8558 16.4506 21.2461 15.9877 20.543 15.7295C19.8399 15.4713 19.0755 15.4295 18.3484 15.6097C17.6214 15.7898 16.9649 16.1835 16.4636 16.7402C15.9624 17.2968 15.6393 17.9908 15.536 18.7327C15.4328 19.4746 15.5541 20.2304 15.8843 20.9027C16.2145 21.5751 16.7385 22.1331 17.3887 22.505C18.039 22.8768 18.7857 23.0454 19.5326 22.989C20.2795 22.9326 20.9925 22.6538 21.5795 22.1885L21.737 22.5065L21.7505 22.5305L22.268 23.5655L17.345 29.75C16.064 31.358 13.502 30.0305 14.078 28.0565L15.998 21.473H13.625C13.4497 21.4733 13.2767 21.4326 13.1199 21.3541C12.9631 21.2757 12.8268 21.1617 12.7219 21.0212C12.617 20.8807 12.5463 20.7177 12.5156 20.5451C12.4849 20.3724 12.495 20.195 12.545 20.027L15.3695 10.5455ZM21.3665 18.485C21.1861 17.9858 20.835 17.5665 20.3753 17.3012C19.9156 17.0358 19.377 16.9415 18.8545 17.035C18.332 17.1284 17.8594 17.4035 17.5201 17.8117C17.1809 18.2199 16.9968 18.7348 17.0005 19.2656C17.0043 19.7963 17.1955 20.3087 17.5404 20.7121C17.8854 21.1155 18.3618 21.384 18.8855 21.47C19.4093 21.5561 19.9466 21.4543 20.4025 21.1826C20.8584 20.9108 21.2036 20.4866 21.377 19.985C21.518 19.982 21.6425 19.9865 21.779 20.012C21.8958 20.0311 22.0073 20.0743 22.1065 20.1388C22.2057 20.2034 22.2903 20.2879 22.355 20.387L23.8295 23.333C24.0025 23.6262 24.2369 23.8785 24.5165 24.0726C24.7961 24.2668 25.1144 24.3983 25.4495 24.458C25.6715 24.5 25.913 24.512 26.1335 24.512C26.3139 25.0111 26.665 25.4305 27.1247 25.6958C27.5844 25.9611 28.123 26.0554 28.6455 25.962C29.168 25.8686 29.6406 25.5935 29.9799 25.1853C30.3191 24.7771 30.5032 24.2621 30.4995 23.7314C30.4957 23.2006 30.3045 22.6883 29.9596 22.2849C29.6146 21.8815 29.1382 21.613 28.6145 21.5269C28.0907 21.4408 27.5534 21.5427 27.0975 21.8144C26.6416 22.0862 26.2964 22.5104 26.123 23.012C25.9884 23.0161 25.8537 23.0066 25.721 22.9835C25.6043 22.9646 25.4929 22.9216 25.3937 22.8573C25.2946 22.793 25.2099 22.7088 25.145 22.61L23.6705 19.6625C23.4975 19.3693 23.2631 19.117 22.9835 18.9229C22.7039 18.7287 22.3856 18.5972 22.0505 18.5375C21.8245 18.4999 21.5956 18.4824 21.3665 18.485ZM19.25 18.5C19.4489 18.5 19.6397 18.579 19.7803 18.7197C19.921 18.8603 20 19.0511 20 19.25C20 19.4489 19.921 19.6397 19.7803 19.7803C19.6397 19.921 19.4489 20 19.25 20C19.0511 20 18.8603 19.921 18.7197 19.7803C18.579 19.6397 18.5 19.4489 18.5 19.25C18.5 19.0511 18.579 18.8603 18.7197 18.7197C18.8603 18.579 19.0511 18.5 19.25 18.5ZM28.25 23C28.4489 23 28.6397 23.079 28.7803 23.2197C28.921 23.3603 29 23.5511 29 23.75C29 23.9489 28.921 24.1397 28.7803 24.2803C28.6397 24.421 28.4489 24.5 28.25 24.5C28.0511 24.5 27.8603 24.421 27.7197 24.2803C27.579 24.1397 27.5 23.9489 27.5 23.75C27.5 23.5511 27.579 23.3603 27.7197 23.2197C27.8603 23.079 28.0511 23 28.25 23Z" fill="white"/>
</svg>
