<svg width="20" height="20" viewBox="0 0 20 20" fill="none" xmlns="http://www.w3.org/2000/svg">
<path d="M16.6922 7.94219L10.4422 14.1922C10.3842 14.2503 10.3152 14.2964 10.2393 14.3279C10.1635 14.3593 10.0821 14.3755 10 14.3755C9.91788 14.3755 9.83655 14.3593 9.76067 14.3279C9.6848 14.2964 9.61587 14.2503 9.55782 14.1922L3.30782 7.94219C3.19055 7.82491 3.12466 7.66585 3.12466 7.5C3.12466 7.33415 3.19055 7.17509 3.30782 7.05781C3.4251 6.94054 3.58416 6.87465 3.75001 6.87465C3.91586 6.87465 4.07492 6.94054 4.1922 7.05781L10 12.8664L15.8078 7.05781C15.8659 6.99974 15.9348 6.95368 16.0107 6.92225C16.0866 6.89083 16.1679 6.87465 16.25 6.87465C16.3321 6.87465 16.4135 6.89083 16.4893 6.92225C16.5652 6.95368 16.6341 6.99974 16.6922 7.05781C16.7503 7.11588 16.7963 7.18482 16.8278 7.26069C16.8592 7.33656 16.8754 7.41788 16.8754 7.5C16.8754 7.58212 16.8592 7.66344 16.8278 7.73931C16.7963 7.81518 16.7503 7.88412 16.6922 7.94219Z" fill="#878787"/>
</svg>
