<svg width="20" height="20" viewBox="0 0 20 20" fill="none" xmlns="http://www.w3.org/2000/svg">
<path d="M2.5 5C2.5 4.83424 2.56585 4.67527 2.68306 4.55806C2.80027 4.44085 2.95924 4.375 3.125 4.375H16.875C17.0408 4.375 17.1997 4.44085 17.3169 4.55806C17.4342 4.67527 17.5 4.83424 17.5 5C17.5 5.16576 17.4342 5.32473 17.3169 5.44194C17.1997 5.55915 17.0408 5.625 16.875 5.625H3.125C2.95924 5.625 2.80027 5.55915 2.68306 5.44194C2.56585 5.32473 2.5 5.16576 2.5 5ZM3.125 8.75H13.125C13.2908 8.75 13.4497 8.68415 13.5669 8.56694C13.6842 8.44973 13.75 8.29076 13.75 8.125C13.75 7.95924 13.6842 7.80027 13.5669 7.68306C13.4497 7.56585 13.2908 7.5 13.125 7.5H3.125C2.95924 7.5 2.80027 7.56585 2.68306 7.68306C2.56585 7.80027 2.5 7.95924 2.5 8.125C2.5 8.29076 2.56585 8.44973 2.68306 8.56694C2.80027 8.68415 2.95924 8.75 3.125 8.75ZM16.875 10.625H3.125C2.95924 10.625 2.80027 10.6908 2.68306 10.8081C2.56585 10.9253 2.5 11.0842 2.5 11.25C2.5 11.4158 2.56585 11.5747 2.68306 11.6919C2.80027 11.8092 2.95924 11.875 3.125 11.875H16.875C17.0408 11.875 17.1997 11.8092 17.3169 11.6919C17.4342 11.5747 17.5 11.4158 17.5 11.25C17.5 11.0842 17.4342 10.9253 17.3169 10.8081C17.1997 10.6908 17.0408 10.625 16.875 10.625ZM13.125 13.75H3.125C2.95924 13.75 2.80027 13.8158 2.68306 13.9331C2.56585 14.0503 2.5 14.2092 2.5 14.375C2.5 14.5408 2.56585 14.6997 2.68306 14.8169C2.80027 14.9342 2.95924 15 3.125 15H13.125C13.2908 15 13.4497 14.9342 13.5669 14.8169C13.6842 14.6997 13.75 14.5408 13.75 14.375C13.75 14.2092 13.6842 14.0503 13.5669 13.9331C13.4497 13.8158 13.2908 13.75 13.125 13.75Z" fill="#383838"/>
</svg>
