<svg width="32" height="32" viewBox="0 0 32 32" fill="none" xmlns="http://www.w3.org/2000/svg">
<path d="M23.3281 19.7453C22.8945 18.9984 22.25 16.8852 22.25 14.125C22.25 12.4674 21.5915 10.8777 20.4194 9.70558C19.2473 8.53348 17.6576 7.875 16 7.875C14.3424 7.875 12.7527 8.53348 11.5806 9.70558C10.4085 10.8777 9.75001 12.4674 9.75001 14.125C9.75001 16.8859 9.1047 18.9984 8.6711 19.7453C8.56038 19.9352 8.50168 20.1509 8.50092 20.3707C8.50017 20.5905 8.55739 20.8066 8.66681 20.9973C8.77623 21.1879 8.93398 21.3463 9.12415 21.4565C9.31433 21.5667 9.53021 21.6248 9.75001 21.625H12.9383C13.0825 22.3306 13.466 22.9647 14.0239 23.4201C14.5818 23.8756 15.2798 24.1243 16 24.1243C16.7202 24.1243 17.4183 23.8756 17.9762 23.4201C18.5341 22.9647 18.9175 22.3306 19.0617 21.625H22.25C22.4697 21.6247 22.6855 21.5665 22.8756 21.4562C23.0657 21.346 23.2233 21.1875 23.3326 20.9969C23.442 20.8063 23.4991 20.5903 23.4983 20.3705C23.4975 20.1508 23.4388 19.9351 23.3281 19.7453ZM16 22.875C15.6124 22.8749 15.2343 22.7546 14.9178 22.5308C14.6013 22.3069 14.362 21.9905 14.2328 21.625H17.7672C17.638 21.9905 17.3987 22.3069 17.0822 22.5308C16.7657 22.7546 16.3877 22.8749 16 22.875ZM9.75001 20.375C10.3516 19.3406 11 16.9438 11 14.125C11 12.7989 11.5268 11.5271 12.4645 10.5895C13.4022 9.65178 14.6739 9.125 16 9.125C17.3261 9.125 18.5979 9.65178 19.5355 10.5895C20.4732 11.5271 21 12.7989 21 14.125C21 16.9414 21.6469 19.3383 22.25 20.375H9.75001Z" fill="#383838"/>
</svg>
