<svg width="20" height="20" viewBox="0 0 20 20" fill="none" xmlns="http://www.w3.org/2000/svg">
<path d="M18.0406 16.5624C16.8508 14.5054 15.0172 13.0304 12.8773 12.3312C13.9358 11.7011 14.7582 10.7409 15.2181 9.59821C15.6781 8.45548 15.7502 7.19337 15.4235 6.00568C15.0967 4.81798 14.3891 3.77039 13.4094 3.02378C12.4296 2.27716 11.2318 1.8728 10 1.8728C8.76818 1.8728 7.57041 2.27716 6.59064 3.02378C5.61087 3.77039 4.90328 4.81798 4.57651 6.00568C4.24975 7.19337 4.32189 8.45548 4.78186 9.59821C5.24183 10.7409 6.06419 11.7011 7.12265 12.3312C4.98281 13.0296 3.14922 14.5046 1.95937 16.5624C1.91574 16.6336 1.8868 16.7127 1.87425 16.7953C1.86171 16.8778 1.86582 16.962 1.88634 17.0429C1.90687 17.1238 1.94338 17.1997 1.99374 17.2663C2.0441 17.3328 2.10728 17.3886 2.17955 17.4304C2.25182 17.4721 2.33172 17.499 2.41454 17.5093C2.49735 17.5197 2.5814 17.5134 2.66173 17.4907C2.74206 17.4681 2.81705 17.4296 2.88225 17.3775C2.94746 17.3254 3.00158 17.2608 3.0414 17.1874C4.51328 14.6437 7.11484 13.1249 10 13.1249C12.8852 13.1249 15.4867 14.6437 16.9586 17.1874C16.9984 17.2608 17.0525 17.3254 17.1177 17.3775C17.183 17.4296 17.2579 17.4681 17.3383 17.4907C17.4186 17.5134 17.5026 17.5197 17.5855 17.5093C17.6683 17.499 17.7482 17.4721 17.8204 17.4304C17.8927 17.3886 17.9559 17.3328 18.0063 17.2663C18.0566 17.1997 18.0931 17.1238 18.1136 17.0429C18.1342 16.962 18.1383 16.8778 18.1257 16.7953C18.1132 16.7127 18.0843 16.6336 18.0406 16.5624ZM5.625 7.49993C5.625 6.63463 5.88159 5.78877 6.36232 5.06931C6.84305 4.34984 7.52633 3.78909 8.32576 3.45796C9.12518 3.12682 10.0049 3.04018 10.8535 3.20899C11.7022 3.3778 12.4817 3.79448 13.0936 4.40634C13.7054 5.01819 14.1221 5.79774 14.2909 6.64641C14.4597 7.49508 14.3731 8.37474 14.042 9.17417C13.7108 9.9736 13.1501 10.6569 12.4306 11.1376C11.7112 11.6183 10.8653 11.8749 10 11.8749C8.84006 11.8737 7.72798 11.4124 6.90778 10.5922C6.08757 9.77195 5.62624 8.65987 5.625 7.49993Z" fill="#878787"/>
</svg>
